<svg xmlns="http://www.w3.org/2000/svg" version="1.1" xmlns:xlink="http://www.w3.org/1999/xlink" xmlns:svgjs="http://svgjs.dev/svgjs" width="2000" height="1500" viewBox="0 0 2000 1500">
    <rect width="2000" height="1500" fill="#0a1627"></rect>
    <g transform="matrix(0.75,0,0,0.75,249.090909090909,282.7536437246963)">
        <svg viewBox="0 0 396 247" data-background-color="#0a1627" preserveAspectRatio="xMidYMid meet" height="1247" width="2000" xmlns="http://www.w3.org/2000/svg" xmlns:xlink="http://www.w3.org/1999/xlink">
            <g id="tight-bounds" transform="matrix(1,0,0,1,0.2400000000000091,-0.09999999999999432)">
                <svg viewBox="0 0 395.52 247.2" height="247.2" width="395.52">
                    <g>
                        <svg></svg>
                    </g>
                    <g>
                        <svg viewBox="0 0 395.52 247.2" height="247.2" width="395.52">
                            <g transform="matrix(1,0,0,1,75.54432,56.52633985401458)">
                                <svg viewBox="0 0 244.43135999999998 134.14732029197083" height="134.14732029197083" width="244.43135999999998">
                                    <g>
                                        <svg viewBox="0 0 244.43135999999998 134.14732029197083" height="134.14732029197083" width="244.43135999999998">
                                            <g>
                                                <svg viewBox="0 0 244.43135999999998 134.14732029197083" height="134.14732029197083" width="244.43135999999998">
                                                    <g>
                                                        <svg viewBox="0 0 244.43135999999998 134.14732029197083" height="134.14732029197083" width="244.43135999999998">
                                                            <g id="textblocktransform">
                                                                <svg viewBox="0 0 244.43135999999998 134.14732029197083" height="134.14732029197083" width="244.43135999999998" id="textblock">
                                                                    <g>
                                                                        <svg viewBox="0 0 244.43135999999998 134.14732029197083" height="134.14732029197083" width="244.43135999999998">
                                                                            <g transform="matrix(1,0,0,1,0,0)">
                                                                                <svg width="244.43135999999998" viewBox="-3.900000035762787 -44.45000076293945 110.5999984741211 61.150001525878906" height="134.14732029197083" data-palette-color="#fe0039">
                                                                                    <path d="M38-41.45Q40.25-41.45 40.25-39.35L40.25-39.35Q40.25-38.15 39.75-37.02 39.25-35.9 37.9-33.75L37.9-33.75Q36.8-31.95 31.7-24.2L31.7-24.2Q26.3-16.05 23.15-10.83 20-5.6 18.1-0.75L18.1-0.75Q17.85-0.05 17.68 0.1 17.5 0.25 17 0.3L17 0.3Q13.6 0.5 13.1 1L13.1 1Q12.8 0.85 12.6 0.65L12.6 0.65Q13.15-1.15 13.15-6.35L13.15-6.35Q13.15-10.8 12.8-16.4 12.45-22 12.1-24.95L12.1-24.95Q11.6-28.9 10.23-30.48 8.85-32.05 6.05-32.05L6.05-32.05Q4.05-32.05 2.6-31.33 1.15-30.6-0.55-28.9L-0.55-28.9Q-0.9-29.25-0.9-30.2L-0.9-30.2Q-0.9-30.65-0.85-30.85L-0.85-30.85Q-0.6-32.05 0.63-33.1 1.85-34.15 3.78-34.77 5.7-35.4 7.95-35.4L7.95-35.4Q12.2-35.4 14.05-32.98 15.9-30.55 16.35-25.15L16.35-25.15Q16.75-20.3 16.85-4.55L16.85-4.55Q17.75-6.15 20.15-10.25L20.15-10.25Q26.8-21.95 30.4-28.7 34-35.45 34.4-38.3L34.4-38.3Q34.45-38.5 34.45-38.85L34.45-38.85Q34.45-39.65 33.9-40.55L33.9-40.55Q34.15-40.6 35.1-40.9L35.1-40.9Q36.95-41.45 38-41.45L38-41.45ZM102.8 5.15Q103.7 6.2 103.7 7.4L103.7 7.4Q103.7 9.3 102.1 10.73 100.5 12.15 97.6 12.93 94.7 13.7 90.9 13.7L90.9 13.7Q82.2 13.7 73.92 9.6 65.65 5.5 58.77-1.23 51.9-7.95 46.9-16L46.9-16Q46.5-14.05 45.35-8.25L45.35-8.25Q44.45-3.55 43.95-1.25L43.95-1.25Q43.8-0.5 43.52-0.25 43.25 0 42.7 0L42.7 0Q40.35 0.05 39.65 0.15 38.95 0.25 38.5 0.6L38.5 0.6Q37.95 0.6 37.95 0.25L37.95 0.25Q39.75-3.7 42.22-14.23 44.7-24.75 45.65-30.45L45.65-30.45Q45.85-31.75 45.85-31.9L45.85-31.9Q45.85-32.45 45.6-32.58 45.35-32.7 44.7-32.7L44.7-32.7Q43.35-32.7 41.75-32.45L41.75-32.45Q40.05-32.25 39.2-32.25L39.2-32.25Q38.5-32.25 38.22-32.4 37.95-32.55 37.95-33L37.95-33Q37.95-33.9 38.4-35.1 38.85-36.3 39.35-36.3L39.35-36.3Q39.4-35.4 41.2-35.18 43-34.95 46-34.95L46-34.95Q48.85-34.95 53.9-35.4L53.9-35.4Q54.65-35.5 56.05-35.6L56.05-35.6Q56.05-35.2 55.9-34.25 55.75-33.3 55.7-33L55.7-33 51.65-32.9Q51-32.9 50.8-32.25L50.8-32.25Q49.05-26.15 47.2-17.4L47.2-17.4Q49.25-18.9 51.75-20.93 54.25-22.95 56.65-24.95L56.65-24.95Q61.25-28.8 64.35-31.25 67.45-33.7 70.8-35.9L70.8-35.9 71.6-35.9Q72.05-35.65 74.45-35.25L74.45-35.25Q75.95-35 76.35-34.85L76.35-34.85 76.35-34.45Q75.55-34.6 70.62-31.3 65.7-28 59.8-23.65 53.9-19.3 51.1-17.05L51.1-17.05Q55.95-9.6 62.65-3.63 69.35 2.35 76.8 5.78 84.25 9.2 91.25 9.2L91.25 9.2Q95.25 9.2 98.02 8.13 100.8 7.05 102.8 5.15L102.8 5.15Z" opacity="1" transform="matrix(1,0,0,1,0,0)" fill="#fe0039" class="undefined-text-0" data-fill-palette-color="primary" id="text-0"></path>
                                                                                </svg>
                                                                            </g>
                                                                        </svg>
                                                                    </g>
                                                                </svg>
                                                            </g>
                                                        </svg>
                                                    </g>
                                                </svg>
                                            </g>
                                        </svg>
                                    </g>
                                </svg>
                            </g>
                            <g>
                                <path d="M0 123.6c0-68.262 55.338-123.6 123.6-123.6 36.995 0 70.193 16.253 92.845 42.008l-7.525 0c-21.493-22.469-51.772-36.462-85.32-36.462-65.199 0-118.054 52.855-118.054 118.054 0 65.199 52.855 118.054 118.054 118.054 33.548 0 63.828-13.994 85.32-36.462l7.525 0c-22.651 25.755-55.85 42.008-92.845 42.008-68.262 0-123.6-55.338-123.6-123.6z" fill="#fe0039" stroke="transparent" data-fill-palette-color="tertiary"></path>
                            </g>
                        </svg>
                    </g>
                    <defs></defs>
                </svg>
                <rect width="395.52" height="247.2" fill="none" stroke="none" visibility="hidden"></rect>
            </g>
        </svg>
    </g>
</svg>