<?xml version="1.0" standalone="no"?>
<!DOCTYPE svg PUBLIC "-//W3C//DTD SVG 1.0//EN" "http://www.w3.org/TR/2001/REC-SVG-20010904/DTD/svg10.dtd">
<svg xmlns="http://www.w3.org/2000/svg" xmlns:xlink="http://www.w3.org/1999/xlink" id="body_1" width="200" height="150">

<defs>
                <clipPath  id="1">

                    <path clip-rule="evenodd" d="" />                </clipPath>
                <clipPath  id="2">

                    <path clip-rule="evenodd" d="" />                </clipPath>
</defs>

<g transform="matrix(0.20000002 0 0 0.20000002 0 0)">
	<g transform="matrix(5.4744525 0 0 5.4744525 1.8248314 -0)">
		<g>
            <path d="M0 0L182 0L182 137L0 137L0 0z" stroke="none" fill="#0A1627" fill-rule="nonzero" />
            <path d="M80.78906 47.61328C 81.921875 47.61328 82.48828 48.14453 82.48828 49.20703C 82.48828 49.816406 82.36328 50.402344 82.109375 50.976562C 81.859375 51.54297 81.39453 52.367188 80.71094 53.45703C 80.16016 54.367188 78.59766 56.78125 76.02734 60.703125C 73.30469 64.82422 71.15234 68.203125 69.5625 70.84375C 67.97656 73.48828 66.703125 76.03906 65.74609 78.49219C 65.62109 78.84766 65.515625 79.0625 65.42969 79.13672C 65.33984 79.21094 65.16797 79.26172 64.91406 79.28906C 63.203125 79.390625 62.21875 79.56641 61.964844 79.82031C 61.816406 79.74219 61.691406 79.65625 61.589844 79.55469C 61.867188 78.64453 62.003906 76.875 62.003906 74.24219C 62.003906 71.99219 61.91797 69.453125 61.73828 66.61719C 61.5625 63.785156 61.38672 61.625 61.210938 60.132812C 60.95703 58.132812 60.48828 56.734375 59.796875 55.9375C 59.101562 55.14453 58.046875 54.746094 56.63672 54.746094C 55.628906 54.746094 54.76172 54.929688 54.03125 55.29297C 53.30078 55.660156 52.503906 56.277344 51.648438 57.13672C 51.472656 56.95703 51.382812 56.628906 51.382812 56.148438C 51.382812 55.921875 51.398438 55.757812 51.421875 55.65625C 51.546875 55.05078 51.921875 54.48047 52.539062 53.94922C 53.15625 53.41797 53.94922 52.996094 54.921875 52.683594C 55.890625 52.36328 56.941406 52.203125 58.07422 52.203125C 60.214844 52.203125 61.753906 52.816406 62.683594 54.039062C 63.617188 55.26953 64.19531 57.25 64.421875 59.98047C 64.625 62.433594 64.75 67.64453 64.80078 75.609375C 65.25391 74.80078 66.08594 73.359375 67.296875 71.28516C 70.64844 65.36719 73.23047 60.703125 75.04297 57.289062C 76.859375 53.875 77.86719 51.445312 78.06641 50.003906C 78.09375 49.902344 78.10547 49.765625 78.10547 49.585938C 78.10547 49.183594 77.96484 48.753906 77.6875 48.296875C 77.81641 48.273438 78.11719 48.183594 78.59766 48.03125C 79.52734 47.753906 80.25781 47.61328 80.78906 47.61328zM129.76953 82.96875C 130.22266 83.5 130.44922 84.06641 130.44922 84.67578C 130.44922 85.63672 130.04688 86.47656 129.24219 87.203125C 128.4336 87.91797 127.30078 88.47656 125.83984 88.87109C 124.37891 89.26172 122.69141 89.453125 120.77344 89.453125C 116.390625 89.453125 112.11328 88.41797 107.94141 86.34375C 103.77344 84.26953 99.95703 81.53125 96.48828 78.12891C 93.02734 74.73047 90.03516 70.99219 87.515625 66.921875C 87.3125 67.91016 86.921875 69.86719 86.34375 72.80078C 85.890625 75.17969 85.53906 76.94922 85.28516 78.11328C 85.21094 78.49219 85.10156 78.74609 84.96094 78.87109C 84.82422 78.99609 84.61719 79.0625 84.33984 79.0625C 83.15625 79.08594 82.38672 79.125 82.03516 79.17578C 81.68359 79.22656 81.39453 79.33984 81.16797 79.515625C 80.890625 79.515625 80.75 79.42578 80.75 79.25C 81.65625 77.25391 82.734375 73.58984 83.97656 68.265625C 85.22656 62.945312 86.09375 58.84375 86.57031 55.960938C 86.671875 55.30078 86.72266 54.9375 86.72266 54.859375C 86.72266 54.58203 86.66016 54.410156 86.53125 54.34375C 86.40625 54.285156 86.17969 54.253906 85.85156 54.253906C 85.171875 54.253906 84.42969 54.316406 83.62109 54.441406C 82.765625 54.54297 82.125 54.59375 81.69531 54.59375C 81.34375 54.59375 81.09766 54.554688 80.953125 54.48047C 80.82031 54.40625 80.75 54.253906 80.75 54.023438C 80.75 53.570312 80.86328 53.039062 81.08984 52.433594C 81.31641 51.82422 81.55859 51.523438 81.80859 51.523438C 81.83594 51.976562 82.30078 52.26172 83.20703 52.371094C 84.11328 52.48828 85.32422 52.546875 86.83594 52.546875C 88.27344 52.546875 90.26172 52.433594 92.80859 52.203125C 93.18359 52.152344 93.72656 52.101562 94.43359 52.054688C 94.43359 52.253906 94.39453 52.597656 94.32031 53.078125C 94.24219 53.558594 94.19141 53.875 94.16797 54.023438L94.16797 54.023438L91.10547 54.101562C 90.77734 54.101562 90.56641 54.265625 90.46484 54.59375C 89.58203 57.679688 88.67578 61.433594 87.74219 65.859375C 88.77734 65.10156 89.921875 64.20703 91.18359 63.183594C 92.44141 62.160156 93.67578 61.14453 94.88672 60.132812C 97.203125 58.183594 99.14453 56.59375 100.70703 55.351562C 102.26953 54.11328 103.89453 52.9375 105.58203 51.82422L105.58203 51.82422L106.1875 51.82422C 106.41406 51.953125 107.13281 52.117188 108.33984 52.316406C 109.09766 52.445312 109.57422 52.546875 109.77734 52.621094L109.77734 52.621094L109.77734 52.92578C 109.375 52.847656 107.92969 53.64453 105.44531 55.316406C 102.96484 56.984375 100.23828 58.91797 97.265625 61.117188C 94.29297 63.320312 92.10156 64.98828 90.69141 66.125C 93.13281 69.89453 96.04297 73.28906 99.421875 76.30859C 102.796875 79.33203 106.36328 81.71094 110.11719 83.44531C 113.87109 85.17578 117.51172 86.03906 121.03906 86.03906C 123.05469 86.03906 124.76172 85.76953 126.15625 85.23047C 127.55859 84.68359 128.76172 83.92969 129.76953 82.96875z" stroke="none" fill="#FE0039" fill-rule="nonzero" />
			<g clip-path="url(#1)" >
                <path d="M22.777344 68.53516C 22.777344 44.92578 41.84375 25.789062 65.36328 25.789062C 78.11328 25.789062 89.55078 31.410156 97.35547 40.316406L97.35547 40.316406L94.76172 40.316406C 87.35547 32.546875 76.921875 27.707031 65.36328 27.707031C 42.898438 27.707031 24.6875 45.98828 24.6875 68.53516C 24.6875 91.08203 42.898438 109.359375 65.36328 109.359375C 76.921875 109.359375 87.35547 104.51953 94.76172 96.75L94.76172 96.75L97.35547 96.75C 89.55078 105.65625 78.11328 111.27734 65.36328 111.27734C 41.84375 111.27734 22.777344 92.140625 22.777344 68.53516z" stroke="none" fill="#FE0039" fill-rule="nonzero" />
			</g>
			<g clip-path="url(#2)" >
                <path transform="matrix(0.344566 0 0 0.345828 22.775942 25.79025)"  d="M0.00406758 123.60166C 0.00406758 55.33252 55.338657 -0.00343379 123.59712 -0.00343379C 160.60022 -0.00343379 193.79416 16.250586 216.44496 42.003998L216.44496 42.003998L208.91736 42.003998C 187.42291 19.537535 157.1425 5.542587 123.59712 5.542587C 58.399574 5.542587 5.54773 58.404858 5.54773 123.60166C 5.54773 188.79846 58.399574 241.64943 123.59712 241.64943C 157.1425 241.64943 187.42291 227.65448 208.91736 205.18802L208.91736 205.18802L216.44496 205.18802C 193.79416 230.94144 160.60022 247.19545 123.59712 247.19545C 55.338657 247.19545 0.00406758 191.8595 0.00406758 123.60166z" stroke="#FFFFFF" stroke-width="1" fill="none" />
			</g>
		</g>
	</g>
</g>
</svg>